# xmcd CD database file
#
# Track frame offsets:
#	150
#	14208
#	26476
#	41567
#	54536
#	71482
#	85672
#	100953
#	114039
#	128490
#	149180
#	164138
#	176376
#	192787
#
# Disc length: 2745 seconds
#
# Revision: 0
# Processed by: cddbd v1.5.1PL0 Copyright (c) Steve Scherf et al.
# Submitted via: CDex 1.50
#
DISCID=bf0ab70e
DTITLE=Various Artist - Mr. Music Country 09-05
DYEAR=2005
DGENRE=Country
TTITLE0=Ken Mellons - Any Time Any Place
TTITLE1=The Kendalls - Pick Me Up On Your Way Down
TTITLE2=C. Louvin with W. Jennings and G. Jones - Country Boys Dream
TTITLE3=Billy Kebble - Appearing At A Honky Tonk Near You
TTITLE4=Jackson Taylor Band - Whiskey
TTITLE5=Shelby Roberts - Come Home To Me
TTITLE6=Roger Creager - Long Way To Mexico
TTITLE7=Inger Nordström 'n' her Rhinestone Band - Cajun Darling
TTITLE8=Jor Bonson and Coffee Run - Jesus And Bartenders
TTITLE9=Sisters Wade - Walls Of Time
TTITLE10=Mike Bella - Lost In The Shuffle
TTITLE11=June Carter Cash and Johnny Cash - The Far Side Banks Of Jordan
TTITLE12=Fred Leonard - Playin' Country Music
TTITLE13=Matt Linsin - Sorry
EXTD=YEAR: 2005
EXTT0=
EXTT1=
EXTT2=
EXTT3=
EXTT4=
EXTT5=
EXTT6=
EXTT7=
EXTT8=
EXTT9=
EXTT10=
EXTT11=
EXTT12=
EXTT13=
PLAYORDER=
